<svg viewBox="0 0 12 12" width="168px" height="168px" xmlns="http://www.w3.org/2000/svg"><path fill-rule="evenodd" d="M 0,0 3,0 3,1 4,1 4,2 7,2 7,1 8,1 8,0 11,0 11,9 10,9 10,11 7,11 7,10 6,10 6,9 5,9 5,10 4,10 4,11 1,11 1,9 0,9z" fill="#EB6847"/><path fill-rule="evenodd" d="M 1,1 2,1 2,2 1,2z" fill="#ffffff"/><path fill-rule="evenodd" d="M 9,1 10,1 10,2 9,2z" fill="#ffffff"/><path fill-rule="evenodd" d="M 2,2 3,2 3,3 4,3 4,4 3,4 3,5 1,5 1,4 2,4z" fill="#ffffff"/><path fill-rule="evenodd" d="M 8,2 9,2 9,4 10,4 10,5 8,5 8,4 7,4 7,3 8,3z" fill="#ffffff"/><path fill-rule="evenodd" d="M 5,3 6,3 6,4 5,4z" fill="#ffffff"/><path fill-rule="evenodd" d="M 4,4 5,4 5,5 4,5z" fill="#ffffff"/><path fill-rule="evenodd" d="M 6,4 7,4 7,5 6,5z" fill="#ffffff"/><path fill-rule="evenodd" d="M 1,6 3,6 3,7 2,7 2,8 1,8z" fill="#ffffff"/><path fill-rule="evenodd" d="M 8,6 10,6 10,8 9,8 9,7 8,7z" fill="#ffffff"/><path fill-rule="evenodd" d="M 3,7 4,7 4,9 3,9z" fill="#ffffff"/><path fill-rule="evenodd" d="M 5,7 6,7 6,8 5,8z" fill="#ffffff"/><path fill-rule="evenodd" d="M 7,7 8,7 8,9 7,9z" fill="#ffffff"/><path fill-rule="evenodd" d="M 2,9 3,9 3,10 2,10z" fill="#ffffff"/><path fill-rule="evenodd" d="M 8,9 9,9 9,10 8,10z" fill="#ffffff"/></svg>